<svg width="44" height="385" viewBox="0 0 44 385" fill="none" xmlns="http://www.w3.org/2000/svg">
<g clip-path="url(#clip0_39_16)">
<path d="M35.988 9.2434C35.7912 9.52337 35.551 9.76966 35.2764 9.97279C30.3085 25.4094 22.5337 35.3291 9.46149 41.9998C8.79011 41.0023 7.97772 40.1088 7.04999 39.3474C12.8308 36.6472 17.9667 32.7272 22.1094 27.8533C26.2521 22.9794 29.3045 17.2658 31.0596 11.1H14.1922C11.3447 15.5815 7.78297 19.5602 3.65017 22.8764C2.83927 22.0683 1.95714 21.3359 1.01465 20.6882C7.80792 15.2837 13.0291 8.1372 16.1294 0L20.6229 1.32617C20.4384 1.80359 19.8718 1.94947 19.3052 1.94947C18.3564 4.04482 17.3681 6.04733 16.2743 7.95701H32.7199L33.2866 7.66525L35.988 9.2434Z" fill="white"/>
<path d="M5.71906 83.7343V60.5661L10.2258 60.8579C10.2258 61.2823 9.84364 61.6138 9.09252 61.7066V83.7343H5.71906ZM32.0743 58.7095C32.0743 59.1869 31.7053 59.4256 30.941 59.5185V74.6766C30.941 84.6891 27.528 93.8397 13.9419 99.1311C13.2603 98.1737 12.4586 97.309 11.5567 96.5584C24.7343 91.6383 27.6071 83.4956 27.6071 74.6766V58.431L32.0743 58.7095Z" fill="white"/>
<path d="M6.10122 121.371H38.4918V124.607H23.9042V147.722H41.8652V150.971H2.79364V147.722H20.5043V124.66H6.10122V121.371Z" fill="white"/>
<path d="M40.0599 174.789C39.9516 174.92 39.8138 175.023 39.658 175.09C39.5022 175.157 39.3328 175.186 39.1638 175.174C39.0066 175.198 38.8467 175.198 38.6894 175.174C34.4888 179.314 29.9775 183.122 25.1956 186.565C25.5646 186.711 26.1312 187.003 26.3289 187.096C26.2175 187.276 26.0649 187.427 25.8837 187.535C25.7026 187.643 25.4982 187.707 25.2878 187.719V213.314H21.8221V188.754C16.0874 192.749 10.0563 196.296 3.782 199.363C3.20514 198.416 2.53877 197.528 1.79218 196.711C14.7194 190.703 28.8853 180.505 36.5152 172.07L40.0599 174.789Z" fill="white"/>
<path d="M40.9164 247.662H24.9057L25.7095 247.901C25.6217 248.077 25.4858 248.224 25.3177 248.325C25.1496 248.426 24.9564 248.477 24.7607 248.471C23.4429 257.33 20.2671 265.247 10.1336 270.247C9.3374 269.392 8.4832 268.595 7.57712 267.86C17.4208 263.099 20.1749 256.428 21.2555 247.662H2.80682V244.466H40.8901L40.9164 247.662ZM36.2252 234.215H7.14226V231.019H36.2252V234.215Z" fill="white"/>
<path d="M31.8239 297.261C31.7238 297.374 31.5994 297.463 31.4601 297.52C31.3208 297.578 31.1703 297.602 31.0201 297.592C30.7932 297.587 30.5677 297.556 30.348 297.499C27.108 300.704 23.6276 303.652 19.9377 306.318C20.2925 306.44 20.6401 306.581 20.9787 306.743C20.7867 307.015 20.4997 307.205 20.1749 307.273V327.961H17.2758V308.069C12.3148 311.485 7.10854 314.526 1.6999 317.167C1.20257 316.389 0.633415 315.661 0 314.992C8.14375 311.225 20.3594 304.024 28.5559 294.966L31.8239 297.261Z" fill="white"/>
<path d="M34.8021 348.968C33.4048 347.168 31.8716 345.478 30.2163 343.915L31.8635 342.589C34.1597 344.618 36.192 346.93 37.912 349.472L37.0159 350.135L37.398 350.321C37.2436 350.572 37.0054 350.76 36.726 350.851C33.089 368.821 23.8515 379.549 8.3678 385.027C7.71722 384.042 6.98547 383.115 6.18031 382.255C21.071 377.321 29.8736 366.845 32.6409 352.496H2.45105V349.246H33.8533L34.4726 348.822L34.8021 348.968ZM42.1025 348.676C40.4959 346.134 38.5493 343.827 36.3175 341.82L38.0701 340.427C40.332 342.447 42.3212 344.757 43.9868 347.297L42.1025 348.676Z" fill="white"/>
</g>
<defs>
<clipPath id="clip0_39_16">
<rect width="44" height="385" fill="white"/>
</clipPath>
</defs>
</svg>
