<svg width="46" height="13" viewBox="0 0 46 13" fill="none" xmlns="http://www.w3.org/2000/svg">
<g clip-path="url(#clip0_4_14)">
<path d="M5.60178 0.00933838L11.2104 12.6114H8.53949L7.70998 10.7343H3.49875L2.66751 12.6114H0L5.60178 0.00933838ZM6.72902 8.54221L5.61383 5.92975L4.47798 8.54221H6.72902Z" fill="white"/>
<path d="M11.7474 11.9048C11.746 11.6866 11.8092 11.4728 11.9288 11.2907C12.0484 11.1085 12.2192 10.9662 12.4193 10.8817C12.6195 10.7973 12.8402 10.7744 13.0533 10.8162C13.2664 10.8579 13.4624 10.9623 13.6164 11.1162C13.7704 11.27 13.8755 11.4664 13.9183 11.6804C13.9612 11.8943 13.9399 12.1163 13.8571 12.318C13.7743 12.5198 13.6338 12.6924 13.4534 12.8138C13.273 12.9352 13.0608 13 12.8437 13C12.5546 12.9982 12.2779 12.8825 12.0729 12.6777C11.8679 12.4729 11.751 12.1954 11.7474 11.9048Z" fill="white"/>
<path d="M22.1696 0.230103V2.70415H17.2321V5.19377H20.9305V7.66782H17.2321V10.1592H22.1696V12.6246H14.7694V0.230103H22.1696Z" fill="white"/>
<path d="M30.6368 7.08653V0.230126H33.1133V12.8599L25.7131 5.76646V12.6229H23.2366V-0.00689697L30.6368 7.08653Z" fill="white"/>
<path d="M34.6381 0.26123H37.1077V12.6107H34.6381V0.26123Z" fill="white"/>
<path d="M42.0538 10.1782C42.7422 10.1782 43.4891 9.60898 43.4891 8.92386C43.4891 7.79583 41.9832 7.64012 41.1331 7.34254C39.6358 6.82351 38.3124 5.59514 38.3124 3.91175C38.3131 2.95792 38.6737 2.03986 39.3213 1.34276C39.9689 0.645656 40.8553 0.221394 41.8019 0.155542C42.7484 0.0896907 43.6846 0.387153 44.4215 0.987928C45.1585 1.5887 45.6414 2.44808 45.7728 3.39272L43.3204 3.91175C43.3204 3.57954 43.1891 3.26094 42.9555 3.02603C42.7218 2.79112 42.4049 2.65916 42.0744 2.65916C41.744 2.65916 41.4271 2.79112 41.1934 3.02603C40.9597 3.26094 40.8284 3.57954 40.8284 3.91175C40.8284 5.02421 42.2293 5.32005 43.0812 5.57438C44.6301 6.0242 46.0069 7.21106 46.0069 8.93078C46.0069 11.0069 44.1465 12.6938 42.0796 12.6938C40.1865 12.6938 38.4655 11.2941 38.1816 9.455L40.634 8.93597C40.634 9.62801 41.3792 10.1868 42.071 10.1868L42.0538 10.1782Z" fill="white"/>
</g>
<defs>
<clipPath id="clip0_4_14">
<rect width="46" height="13" fill="white"/>
</clipPath>
</defs>
</svg>
